<svg xmlns="http://www.w3.org/2000/svg" xmlns:xlink="http://www.w3.org/1999/xlink" width="1080" zoomAndPan="magnify" viewBox="0 0 810 809.999993" height="1080" preserveAspectRatio="xMidYMid meet" version="1.0"><defs><clipPath id="0891371e26"><path d="M 247 157.667969 L 637 157.667969 L 637 651 L 247 651 Z M 247 157.667969 " clip-rule="nonzero"/></clipPath><clipPath id="a254ff7481"><path d="M 259 169.667969 L 649 169.667969 L 649 663 L 259 663 Z M 259 169.667969 " clip-rule="nonzero"/></clipPath></defs><rect x="-81" width="972" fill="#ffffff" y="-80.999999" height="971.999992" fill-opacity="1"/><rect x="-81" width="972" fill="#ffffff" y="-80.999999" height="971.999992" fill-opacity="1"/><g clip-path="url(#0891371e26)"><path fill="#2c3152" d="M 543.597656 306.097656 C 543.597656 306.121094 558.539062 339.070312 576.46875 383.558594 C 607.609375 460.859375 647.753906 572.996094 634.160156 607.800781 C 616.179688 653.835938 393.34375 661.339844 351.285156 636.722656 C 291.320312 601.617188 235.429688 533.789062 249.992188 488.703125 C 257.636719 465.039062 277.609375 370.511719 273.71875 314.957031 C 268.246094 236.761719 323.761719 157.804688 397.417969 157.804688 C 471.070312 157.804688 539.953125 213.410156 543.597656 306.097656 Z M 543.597656 306.097656 " fill-opacity="1" fill-rule="evenodd"/></g><path fill="#ffb1a5" d="M 501.308594 305.15625 C 510.496094 305.15625 517.957031 317.621094 517.957031 332.972656 C 517.957031 348.324219 498.441406 367.886719 489.257812 367.886719 C 487.445312 367.886719 485.707031 367.40625 484.078125 366.515625 C 477.421875 362.875 484.660156 345.308594 484.660156 332.972656 C 484.660156 317.621094 492.117188 305.15625 501.308594 305.15625 Z M 501.308594 305.15625 " fill-opacity="1" fill-rule="evenodd"/><path fill="#ffb1a5" d="M 438.617188 423.71875 C 438.617188 423.71875 439.25 430.132812 438.617188 438.285156 C 437.828125 448.492188 437.898438 465.859375 445.871094 473.804688 C 450.078125 477.996094 488.660156 489.429688 514.917969 499.019531 C 528.875 504.121094 530.472656 506.601562 541.179688 511.820312 C 553.058594 517.613281 549.71875 528.035156 549.023438 532.707031 C 546.003906 553.191406 464.734375 572.78125 464.734375 572.78125 L 457.824219 572.8125 L 458.191406 573.28125 L 405.113281 573.042969 L 352.039062 573.28125 L 352.40625 572.8125 L 345.492188 572.78125 C 345.492188 572.78125 264.222656 553.191406 261.199219 532.707031 C 260.511719 528.035156 257.167969 517.613281 269.050781 511.820312 C 282.363281 505.335938 293.304688 497.785156 310.410156 491.664062 C 332.9375 483.601562 360.695312 477.453125 364.355469 473.804688 C 372.332031 465.859375 372.398438 448.492188 371.609375 438.285156 C 370.976562 430.132812 371.609375 423.71875 371.609375 423.71875 Z M 438.617188 423.71875 " fill-opacity="1" fill-rule="evenodd"/><path fill="#2c3152" d="M 454.257812 423.152344 C 432.652344 440.648438 372.863281 439.398438 372.449219 433.988281 C 371.816406 425.835938 371.65625 423.722656 371.65625 423.722656 L 440.199219 418.445312 C 440.199219 418.445312 454.304688 421.484375 454.257812 423.152344 Z M 454.257812 423.152344 " fill-opacity="1" fill-rule="evenodd"/><path fill="#ffb1a5" d="M 430.335938 275.6875 C 446.382812 282.957031 463.207031 295.042969 478.132812 297.335938 C 486.785156 298.660156 498.515625 313.207031 497.53125 319.011719 C 493.859375 340.675781 484.441406 357.8125 477.507812 373.582031 C 460.484375 412.304688 421.421875 436.480469 384.601562 436.480469 C 356.023438 436.480469 347.121094 422.859375 330.199219 399.699219 C 314.0625 377.617188 305.5 344.738281 305.5 300.542969 C 305.5 271.175781 326.292969 254.992188 348.183594 238.488281 C 375.738281 217.714844 408.382812 265.75 430.335938 275.6875 Z M 430.335938 275.6875 " fill-opacity="1" fill-rule="evenodd"/><path fill="#2c3152" d="M 376.816406 376.882812 C 376.816406 376.882812 382.105469 377.542969 389.695312 376.980469 C 391.125 376.859375 392.566406 376.757812 394.078125 376.628906 C 395.503906 376.5 397.023438 376.390625 398.523438 376.230469 C 403.164062 375.699219 408.121094 374.9375 413.335938 372.988281 C 414.480469 372.359375 415.960938 372.765625 416.59375 373.914062 C 417.222656 375.0625 416.746094 376.527344 415.605469 377.15625 C 411.324219 380.394531 407.015625 382.746094 402.722656 384.542969 C 400.613281 385.425781 398.582031 386.09375 396.640625 386.585938 C 394.40625 387.160156 392.238281 387.496094 390.257812 387.6875 C 381.164062 388.59375 374.863281 387.0625 374.863281 387.0625 C 372.089844 386.515625 370.246094 383.800781 370.753906 381 C 371.335938 378.175781 374.042969 376.332031 376.816406 376.882812 Z M 376.816406 376.882812 " fill-opacity="1" fill-rule="evenodd"/><path fill="#2c3152" d="M 355.761719 299.1875 C 355.761719 299.1875 348.878906 293.878906 335.785156 296.21875 C 323.449219 298.425781 316.035156 305.703125 316.035156 305.703125 C 316.035156 305.703125 317.898438 299.15625 323.761719 294.847656 C 327.226562 292.300781 334.6875 291.179688 336.960938 290.914062 C 345.820312 289.882812 356.75 292.457031 356.433594 293.796875 C 356.433594 293.796875 355.632812 298.535156 355.761719 299.1875 Z M 355.761719 299.1875 " fill-opacity="1" fill-rule="evenodd"/><path fill="#2c3152" d="M 405.535156 297.984375 C 405.535156 297.984375 412.414062 292.664062 425.511719 294.988281 C 437.851562 297.179688 445.273438 304.449219 445.273438 304.449219 C 445.273438 304.449219 443.402344 297.902344 437.53125 293.601562 C 434.0625 291.058594 426.601562 289.949219 424.328125 289.6875 C 415.46875 288.664062 404.542969 291.253906 404.859375 292.59375 C 404.859375 292.59375 405.664062 297.332031 405.535156 297.984375 Z M 405.535156 297.984375 " fill-opacity="1" fill-rule="evenodd"/><path fill="#2c3152" d="M 376.921875 333.707031 L 370.792969 356.667969 C 370.597656 357.398438 371.007812 358.160156 371.738281 358.394531 L 384.128906 362.457031 C 384.878906 362.703125 385.6875 362.292969 385.929688 361.542969 C 386.175781 360.789062 385.765625 359.980469 385.015625 359.734375 L 373.914062 356.097656 C 373.914062 356.097656 379.691406 334.441406 379.691406 334.441406 C 379.890625 333.679688 379.441406 332.894531 378.675781 332.691406 C 377.914062 332.488281 377.125 332.941406 376.921875 333.707031 Z M 376.921875 333.707031 " fill-opacity="1" fill-rule="evenodd"/><path fill="#2c3152" d="M 357.117188 320.222656 C 357.085938 320.902344 357 321.570312 356.867188 322.230469 C 356.730469 322.890625 356.550781 323.527344 356.320312 324.144531 C 356.089844 324.761719 355.816406 325.34375 355.496094 325.894531 C 355.179688 326.441406 354.824219 326.945312 354.429688 327.410156 C 354.039062 327.871094 353.617188 328.277344 353.164062 328.632812 C 352.710938 328.988281 352.238281 329.285156 351.742188 329.519531 C 351.25 329.753906 350.742188 329.925781 350.222656 330.035156 C 349.707031 330.140625 349.183594 330.179688 348.664062 330.15625 C 348.140625 330.128906 347.628906 330.039062 347.125 329.878906 C 346.617188 329.722656 346.132812 329.503906 345.660156 329.21875 C 345.191406 328.9375 344.75 328.597656 344.335938 328.199219 C 343.917969 327.800781 343.539062 327.351562 343.195312 326.855469 C 342.847656 326.355469 342.546875 325.820312 342.285156 325.242188 C 342.019531 324.664062 341.804688 324.058594 341.636719 323.421875 C 341.46875 322.785156 341.347656 322.132812 341.28125 321.460938 C 341.210938 320.792969 341.195312 320.117188 341.226562 319.441406 C 341.261719 318.761719 341.34375 318.09375 341.480469 317.433594 C 341.613281 316.773438 341.796875 316.136719 342.027344 315.519531 C 342.257812 314.902344 342.53125 314.320312 342.847656 313.769531 C 343.167969 313.222656 343.523438 312.714844 343.914062 312.253906 C 344.308594 311.792969 344.730469 311.386719 345.183594 311.03125 C 345.632812 310.675781 346.109375 310.378906 346.601562 310.144531 C 347.097656 309.910156 347.605469 309.738281 348.121094 309.628906 C 348.640625 309.523438 349.160156 309.484375 349.683594 309.507812 C 350.203125 309.535156 350.71875 309.625 351.222656 309.785156 C 351.726562 309.941406 352.214844 310.160156 352.683594 310.445312 C 353.152344 310.726562 353.59375 311.066406 354.011719 311.464844 C 354.425781 311.863281 354.804688 312.3125 355.152344 312.808594 C 355.496094 313.304688 355.800781 313.84375 356.0625 314.421875 C 356.324219 315 356.539062 315.605469 356.707031 316.242188 C 356.878906 316.878906 356.996094 317.53125 357.066406 318.203125 C 357.132812 318.871094 357.152344 319.546875 357.117188 320.222656 Z M 357.117188 320.222656 " fill-opacity="1" fill-rule="nonzero"/><path fill="#2c3152" d="M 427.671875 320.75 C 427.675781 321.46875 427.625 322.183594 427.519531 322.886719 C 427.414062 323.59375 427.257812 324.28125 427.046875 324.945312 C 426.839844 325.613281 426.582031 326.246094 426.277344 326.847656 C 425.972656 327.445312 425.625 328 425.234375 328.511719 C 424.847656 329.023438 424.421875 329.480469 423.964844 329.882812 C 423.503906 330.28125 423.019531 330.621094 422.507812 330.902344 C 422 331.179688 421.472656 331.390625 420.929688 331.53125 C 420.386719 331.675781 419.839844 331.746094 419.285156 331.75 C 418.730469 331.753906 418.183594 331.683594 417.636719 331.546875 C 417.09375 331.410156 416.566406 331.203125 416.050781 330.929688 C 415.539062 330.65625 415.050781 330.320312 414.589844 329.925781 C 414.125 329.527344 413.699219 329.074219 413.304688 328.566406 C 412.910156 328.058594 412.558594 327.507812 412.246094 326.910156 C 411.9375 326.3125 411.671875 325.683594 411.457031 325.019531 C 411.242188 324.355469 411.078125 323.671875 410.96875 322.964844 C 410.855469 322.257812 410.800781 321.546875 410.796875 320.828125 C 410.792969 320.105469 410.84375 319.394531 410.949219 318.6875 C 411.054688 317.980469 411.210938 317.296875 411.417969 316.628906 C 411.628906 315.964844 411.886719 315.332031 412.191406 314.730469 C 412.496094 314.128906 412.84375 313.574219 413.230469 313.066406 C 413.621094 312.554688 414.046875 312.097656 414.503906 311.695312 C 414.964844 311.292969 415.449219 310.953125 415.957031 310.675781 C 416.46875 310.398438 416.996094 310.1875 417.539062 310.042969 C 418.082031 309.902344 418.628906 309.828125 419.183594 309.828125 C 419.738281 309.824219 420.285156 309.890625 420.832031 310.03125 C 421.375 310.167969 421.902344 310.371094 422.414062 310.644531 C 422.929688 310.917969 423.417969 311.253906 423.878906 311.652344 C 424.339844 312.050781 424.769531 312.503906 425.164062 313.007812 C 425.558594 313.515625 425.910156 314.070312 426.222656 314.664062 C 426.53125 315.261719 426.792969 315.894531 427.007812 316.558594 C 427.226562 317.222656 427.386719 317.90625 427.5 318.609375 C 427.609375 319.316406 427.667969 320.03125 427.671875 320.75 Z M 427.671875 320.75 " fill-opacity="1" fill-rule="nonzero"/><path fill="#2c3152" d="M 470.917969 296.578125 C 470.917969 296.578125 488.976562 338.179688 477.941406 372.636719 C 477.941406 372.636719 504.886719 326.40625 494.632812 294.757812 Z M 470.917969 296.578125 " fill-opacity="1" fill-rule="evenodd"/><path fill="#ffffff" d="M 503.691406 361.261719 C 503.691406 361.746094 503.644531 362.226562 503.550781 362.707031 C 503.460938 363.183594 503.324219 363.644531 503.140625 364.09375 C 502.960938 364.542969 502.738281 364.96875 502.476562 365.375 C 502.210938 365.777344 501.914062 366.152344 501.578125 366.496094 C 501.242188 366.839844 500.878906 367.148438 500.484375 367.417969 C 500.089844 367.6875 499.675781 367.914062 499.238281 368.101562 C 498.800781 368.285156 498.347656 368.425781 497.886719 368.523438 C 497.421875 368.617188 496.953125 368.664062 496.476562 368.664062 C 496.003906 368.664062 495.535156 368.617188 495.070312 368.523438 C 494.605469 368.425781 494.15625 368.285156 493.71875 368.101562 C 493.28125 367.914062 492.863281 367.6875 492.472656 367.417969 C 492.078125 367.148438 491.710938 366.839844 491.378906 366.496094 C 491.042969 366.152344 490.742188 365.777344 490.480469 365.375 C 490.21875 364.96875 489.996094 364.542969 489.8125 364.09375 C 489.632812 363.644531 489.496094 363.183594 489.402344 362.703125 C 489.3125 362.226562 489.265625 361.746094 489.265625 361.261719 C 489.265625 360.777344 489.3125 360.292969 489.402344 359.816406 C 489.496094 359.339844 489.632812 358.878906 489.8125 358.429688 C 489.996094 357.980469 490.21875 357.550781 490.480469 357.148438 C 490.742188 356.742188 491.042969 356.371094 491.378906 356.027344 C 491.710938 355.683594 492.078125 355.375 492.46875 355.105469 C 492.863281 354.835938 493.28125 354.605469 493.71875 354.421875 C 494.15625 354.234375 494.605469 354.09375 495.070312 354 C 495.535156 353.90625 496.003906 353.859375 496.476562 353.859375 C 496.953125 353.859375 497.421875 353.90625 497.886719 354 C 498.347656 354.09375 498.800781 354.234375 499.238281 354.421875 C 499.675781 354.605469 500.089844 354.835938 500.484375 355.105469 C 500.878906 355.375 501.242188 355.683594 501.578125 356.027344 C 501.914062 356.371094 502.210938 356.742188 502.476562 357.148438 C 502.738281 357.550781 502.960938 357.980469 503.140625 358.429688 C 503.324219 358.878906 503.460938 359.339844 503.550781 359.816406 C 503.644531 360.292969 503.691406 360.777344 503.691406 361.261719 Z M 503.691406 361.261719 " fill-opacity="1" fill-rule="nonzero"/><path fill="#34a0a4" d="M 317.601562 489.949219 L 403.167969 548.042969 L 488.011719 489.949219 C 488.011719 489.949219 605.160156 515.609375 639.019531 556.59375 C 683.800781 610.828125 572.207031 660.339844 558.234375 721.585938 C 539.945312 801.679688 504.035156 1183.460938 504.035156 1183.460938 L 359.910156 1185.625 L 301.503906 1173.222656 C 301.503906 1173.222656 283.246094 715.210938 279.789062 621.363281 C 277.648438 563.332031 130.1875 615.785156 171.152344 566.183594 C 205.011719 525.199219 317.601562 489.949219 317.601562 489.949219 Z M 317.601562 489.949219 " fill-opacity="1" fill-rule="evenodd"/><path fill="#ffffff" d="M 517.265625 496.917969 C 521.515625 498.890625 536.511719 502.902344 551.867188 507.675781 C 568.667969 512.898438 585.929688 518.929688 590.710938 521.480469 C 619.019531 536.566406 643.472656 550.460938 664.421875 588.382812 C 678.273438 613.460938 725.082031 732.710938 736.179688 801.597656 C 748.195312 876.136719 721.226562 959.824219 670.644531 988.941406 C 636.816406 1008.421875 619.035156 1015.570312 610.691406 955.082031 C 609.933594 949.542969 619.851562 933.117188 627.179688 904.367188 C 639.136719 857.464844 596.542969 766.574219 594.332031 758.3125 C 602.507812 872.195312 623.335938 1168.363281 623.335938 1168.363281 C 579.054688 1175.167969 510.394531 1187.660156 447.339844 1184.898438 C 447.339844 1184.898438 439.691406 674.269531 447.34375 656.503906 Z M 517.265625 496.917969 " fill-opacity="1" fill-rule="evenodd"/><path fill="#ffffff" d="M 159.628906 579.039062 C 158.5625 580.972656 109.453125 725.28125 112.570312 857.828125 C 113.304688 888.875 109.835938 939.726562 115.050781 963.035156 C 125.015625 1007.503906 149.421875 1027.6875 174.359375 1027.09375 C 229.949219 1025.792969 212.351562 800.582031 212.757812 799.082031 C 204.578125 912.964844 182.359375 1168.226562 182.359375 1168.226562 C 226.644531 1175.03125 295.304688 1187.523438 358.363281 1184.761719 C 358.363281 1184.761719 370.324219 674.277344 362.675781 656.511719 L 292.753906 496.921875 C 288.503906 498.898438 273.507812 502.90625 258.148438 507.683594 C 241.351562 512.90625 224.085938 518.9375 219.308594 521.484375 C 190.992188 536.574219 180.574219 541.117188 159.628906 579.039062 Z M 159.628906 579.039062 " fill-opacity="1" fill-rule="evenodd"/><path fill="#34a0a4" d="M 257.863281 506.695312 L 276.429688 615.613281 L 302.070312 615.613281 L 302.070312 662.398438 L 363.453125 682.910156 L 362.632812 629.371094 L 283.808594 498.65625 Z M 257.863281 506.695312 " fill-opacity="0.2706" fill-rule="evenodd"/><path fill="#34a0a4" d="M 549.050781 507.152344 L 544.667969 620.777344 L 519.023438 620.777344 L 524.402344 657.730469 L 444.625 683.023438 C 444.625 683.023438 439.710938 669.53125 444.242188 657.914062 C 457.894531 622.894531 496.34375 552.457031 524.402344 499.425781 Z M 549.050781 507.152344 " fill-opacity="0.2706" fill-rule="evenodd"/><path fill="#ffffff" d="M 257.863281 506.695312 L 283.808594 611.925781 L 309.453125 611.925781 L 309.453125 658.710938 L 362.15625 672.761719 C 362.15625 672.761719 364.613281 636.164062 358.382812 622.320312 C 345.324219 593.304688 317.578125 489.949219 317.578125 489.949219 Z M 257.863281 506.695312 " fill-opacity="1" fill-rule="evenodd"/><path fill="#34a0a4" d="M 336.070312 787.210938 C 336.070312 787.210938 336.722656 814.554688 325.882812 843.070312 C 314.890625 872.019531 292.207031 902.105469 245.648438 906.898438 L 241.542969 907.320312 L 240.699219 899.109375 L 244.804688 898.6875 C 287.425781 894.300781 308.101562 866.644531 318.167969 840.144531 C 328.398438 813.214844 327.824219 787.402344 327.824219 787.402344 L 327.726562 783.277344 L 335.984375 783.085938 Z M 336.070312 787.210938 " fill-opacity="1" fill-rule="evenodd"/><path fill="#34a0a4" d="M 260.902344 788.136719 C 260.902344 788.136719 260.921875 813.957031 271.773438 840.640625 C 282.445312 866.902344 303.757812 894.078125 346.46875 897.476562 L 350.582031 897.804688 L 349.925781 906.035156 L 345.8125 905.707031 C 299.160156 901.988281 275.785156 872.433594 264.128906 843.75 C 252.632812 815.488281 252.648438 788.136719 252.648438 788.136719 L 252.644531 784.011719 L 260.902344 784.011719 Z M 260.902344 788.136719 " fill-opacity="1" fill-rule="evenodd"/><path fill="#2c3152" d="M 297.855469 491.335938 C 289.898438 553.03125 290.644531 613.199219 299.84375 671.835938 C 300.5 676 297.648438 679.910156 293.476562 680.566406 C 289.3125 681.21875 285.402344 678.367188 284.746094 674.203125 C 275.328125 614.160156 274.546875 552.558594 282.695312 489.382812 C 283.230469 485.203125 295.285156 484.242188 296.472656 485.894531 C 297.566406 487.414062 298.113281 489.332031 297.855469 491.335938 Z M 297.855469 491.335938 " fill-opacity="1" fill-rule="evenodd"/><path fill="#2c3152" d="M 325.40625 788.90625 L 319.820312 686.992188 C 319.820312 686.992188 291.832031 681.015625 291.832031 681.015625 C 291.832031 681.015625 272.488281 687.007812 272.488281 687.007812 L 267.292969 788.292969 L 252.023438 787.511719 L 257.765625 675.574219 L 291.121094 665.242188 L 334.445312 674.492188 L 340.675781 788.070312 Z M 325.40625 788.90625 " fill-opacity="1" fill-rule="evenodd"/><path fill="#2c3152" d="M 503.339844 486.992188 C 503.339844 486.992188 521.003906 489.929688 521.027344 492.445312 C 521.257812 518.226562 521.019531 666.835938 512.449219 724.925781 L 511.160156 733.640625 L 493.71875 731.066406 L 495.003906 722.351562 C 504.308594 659.347656 503.355469 488.785156 503.355469 488.785156 Z M 503.339844 486.992188 " fill-opacity="1" fill-rule="evenodd"/><path fill="#34a0a4" d="M 503.722656 708.59375 C 521.265625 708.59375 535.414062 722.609375 535.414062 739.742188 C 535.414062 756.878906 521.265625 770.894531 503.722656 770.894531 C 486.175781 770.894531 472.039062 756.878906 472.039062 739.742188 C 472.039062 722.609375 486.175781 708.59375 503.722656 708.59375 Z M 503.722656 708.59375 " fill-opacity="1" fill-rule="evenodd"/><path fill="#2c3152" d="M 480.828125 740.679688 C 480.75 734.277344 483.253906 728.496094 487.316406 724.261719 C 491.574219 719.816406 497.546875 717.148438 504.109375 717.109375 C 510.84375 717.140625 516.949219 719.984375 521.304688 724.566406 C 525.65625 729.136719 528.183594 735.464844 528.03125 742.347656 C 527.679688 749.210938 524.699219 755.328125 520.03125 759.574219 C 515.367188 763.816406 509.089844 766.21875 502.386719 765.769531 C 495.859375 765.273438 490.105469 762.199219 486.167969 757.484375 C 482.414062 752.980469 480.3125 747.046875 480.828125 740.679688 Z M 480.828125 740.679688 C 480.886719 746.847656 483.371094 752.378906 487.359375 756.40625 C 491.253906 760.332031 496.597656 762.753906 502.492188 762.726562 C 508.207031 762.75 513.363281 760.355469 517.15625 756.558594 C 520.828125 752.890625 523.1875 747.839844 523.296875 742.179688 C 523.574219 736.527344 521.558594 731.34375 518.152344 727.429688 C 514.640625 723.390625 509.683594 720.644531 503.996094 720.269531 C 498.132812 719.816406 492.640625 721.851562 488.480469 725.480469 C 484.21875 729.199219 481.335938 734.535156 480.828125 740.679688 Z M 480.828125 740.679688 " fill-opacity="1" fill-rule="evenodd"/><path fill="#ffffff" d="M 549.050781 507.152344 L 532.527344 611.925781 L 506.886719 611.925781 L 512.261719 648.878906 C 489.585938 656.839844 466.914062 664.796875 444.242188 672.761719 C 440.570312 617.511719 469.058594 557.058594 487.984375 489.949219 C 509.554688 490.832031 529.6875 497.453125 549.050781 507.152344 Z M 549.050781 507.152344 " fill-opacity="1" fill-rule="evenodd"/><path fill="#34a0a4" d="M 350.730469 720.445312 C 350.730469 720.863281 350.691406 721.277344 350.613281 721.6875 C 350.53125 722.101562 350.417969 722.5 350.261719 722.886719 C 350.109375 723.273438 349.917969 723.640625 349.695312 723.988281 C 349.472656 724.339844 349.21875 724.660156 348.933594 724.957031 C 348.648438 725.253906 348.339844 725.519531 348.003906 725.75 C 347.671875 725.984375 347.316406 726.179688 346.945312 726.339844 C 346.574219 726.5 346.191406 726.621094 345.792969 726.703125 C 345.398438 726.785156 345 726.828125 344.597656 726.828125 C 344.195312 726.828125 343.796875 726.785156 343.402344 726.703125 C 343.007812 726.621094 342.625 726.5 342.253906 726.339844 C 341.882812 726.179688 341.527344 725.984375 341.191406 725.75 C 340.859375 725.519531 340.546875 725.253906 340.265625 724.957031 C 339.980469 724.660156 339.726562 724.339844 339.5 723.988281 C 339.277344 723.640625 339.089844 723.273438 338.933594 722.886719 C 338.78125 722.5 338.664062 722.101562 338.585938 721.6875 C 338.507812 721.277344 338.46875 720.863281 338.46875 720.445312 C 338.46875 720.023438 338.507812 719.609375 338.585938 719.199219 C 338.664062 718.789062 338.78125 718.390625 338.933594 718.003906 C 339.089844 717.613281 339.277344 717.246094 339.5 716.898438 C 339.726562 716.550781 339.980469 716.226562 340.265625 715.929688 C 340.546875 715.636719 340.859375 715.371094 341.191406 715.136719 C 341.527344 714.90625 341.882812 714.707031 342.253906 714.546875 C 342.625 714.386719 343.007812 714.265625 343.402344 714.183594 C 343.796875 714.101562 344.195312 714.0625 344.597656 714.0625 C 345 714.0625 345.398438 714.101562 345.792969 714.183594 C 346.191406 714.265625 346.574219 714.386719 346.945312 714.546875 C 347.316406 714.707031 347.671875 714.90625 348.003906 715.136719 C 348.339844 715.371094 348.648438 715.636719 348.933594 715.929688 C 349.21875 716.226562 349.472656 716.550781 349.695312 716.898438 C 349.917969 717.246094 350.109375 717.613281 350.261719 718.003906 C 350.417969 718.390625 350.53125 718.789062 350.613281 719.199219 C 350.691406 719.609375 350.730469 720.023438 350.730469 720.445312 Z M 350.730469 720.445312 " fill-opacity="0.2706" fill-rule="nonzero"/><path fill="#34a0a4" d="M 350.730469 815.601562 C 350.730469 816.019531 350.691406 816.4375 350.613281 816.847656 C 350.53125 817.257812 350.417969 817.65625 350.261719 818.042969 C 350.109375 818.429688 349.917969 818.800781 349.695312 819.148438 C 349.472656 819.496094 349.21875 819.816406 348.933594 820.113281 C 348.648438 820.410156 348.339844 820.675781 348.003906 820.910156 C 347.671875 821.140625 347.316406 821.335938 346.945312 821.5 C 346.574219 821.660156 346.191406 821.78125 345.792969 821.859375 C 345.398438 821.941406 345 821.984375 344.597656 821.984375 C 344.195312 821.984375 343.796875 821.941406 343.402344 821.859375 C 343.007812 821.78125 342.625 821.660156 342.253906 821.5 C 341.882812 821.335938 341.527344 821.140625 341.191406 820.910156 C 340.859375 820.675781 340.546875 820.410156 340.265625 820.113281 C 339.980469 819.816406 339.726562 819.496094 339.5 819.148438 C 339.277344 818.800781 339.089844 818.429688 338.933594 818.042969 C 338.78125 817.65625 338.664062 817.257812 338.585938 816.847656 C 338.507812 816.4375 338.46875 816.019531 338.46875 815.601562 C 338.46875 815.183594 338.507812 814.769531 338.585938 814.355469 C 338.664062 813.945312 338.78125 813.546875 338.933594 813.160156 C 339.089844 812.773438 339.277344 812.40625 339.5 812.054688 C 339.726562 811.707031 339.980469 811.386719 340.265625 811.089844 C 340.546875 810.792969 340.859375 810.527344 341.191406 810.296875 C 341.527344 810.0625 341.882812 809.867188 342.253906 809.707031 C 342.625 809.546875 343.007812 809.425781 343.402344 809.34375 C 343.796875 809.261719 344.195312 809.21875 344.597656 809.21875 C 345 809.21875 345.398438 809.261719 345.792969 809.34375 C 346.191406 809.425781 346.574219 809.546875 346.945312 809.707031 C 347.316406 809.867188 347.671875 810.0625 348.003906 810.296875 C 348.339844 810.527344 348.648438 810.792969 348.933594 811.089844 C 349.21875 811.386719 349.472656 811.707031 349.695312 812.054688 C 349.917969 812.40625 350.109375 812.773438 350.261719 813.160156 C 350.417969 813.546875 350.53125 813.945312 350.613281 814.355469 C 350.691406 814.769531 350.730469 815.183594 350.730469 815.601562 Z M 350.730469 815.601562 " fill-opacity="0.2706" fill-rule="nonzero"/><path fill="#ffffff" d="M 570.542969 729.734375 C 570.542969 729.734375 606.820312 844.292969 577.65625 887.226562 C 532.140625 954.222656 528.976562 998.167969 526.847656 1007.886719 C 522.21875 1029.179688 590.71875 1079.164062 590.71875 1057.542969 C 590.71875 1057.542969 750.101562 972.882812 739 834.667969 C 727.902344 696.453125 570.542969 729.734375 570.542969 729.734375 Z M 570.542969 729.734375 " fill-opacity="1" fill-rule="evenodd"/><path fill="#34a0a4" d="M 217.070312 952.859375 C 217.070312 952.859375 206.152344 774.96875 209.269531 658.421875 L 209.316406 656.839844 L 206.152344 656.753906 L 206.113281 658.335938 C 202.992188 774.996094 213.910156 953.054688 213.910156 953.054688 L 214.011719 954.628906 L 217.164062 954.4375 Z M 217.070312 952.859375 " fill-opacity="1" fill-rule="evenodd"/><path fill="#34a0a4" d="M 228.546875 718.832031 L 302.351562 718.832031 L 302.351562 744.890625 L 228.546875 744.890625 Z M 228.546875 718.832031 " fill-opacity="0.2706" fill-rule="evenodd"/><path fill="#34a0a4" d="M 584.375 666.335938 L 588.460938 862.511719 C 588.492188 863.464844 587.730469 864.25 586.777344 864.28125 C 585.824219 864.316406 585.027344 863.570312 584.996094 862.617188 L 580.929688 666.457031 C 580.898438 665.5 581.640625 664.699219 582.59375 664.667969 C 583.546875 664.636719 584.34375 665.382812 584.375 666.335938 Z M 584.375 666.335938 " fill-opacity="1" fill-rule="evenodd"/><g clip-path="url(#a254ff7481)"><path fill="#2c3152" d="M 555.597656 318.097656 C 555.597656 318.121094 570.539062 351.070312 588.46875 395.558594 C 619.609375 472.859375 659.753906 584.996094 646.160156 619.800781 C 628.179688 665.835938 405.34375 673.339844 363.285156 648.722656 C 303.320312 613.617188 247.429688 545.789062 261.992188 500.703125 C 269.636719 477.039062 289.609375 382.511719 285.71875 326.957031 C 280.246094 248.761719 335.761719 169.804688 409.417969 169.804688 C 483.070312 169.804688 551.953125 225.410156 555.597656 318.097656 Z M 555.597656 318.097656 " fill-opacity="1" fill-rule="evenodd"/></g><path fill="#ffb1a5" d="M 513.308594 317.15625 C 522.496094 317.15625 529.957031 329.621094 529.957031 344.972656 C 529.957031 360.324219 510.441406 379.886719 501.257812 379.886719 C 499.445312 379.886719 497.707031 379.40625 496.078125 378.515625 C 489.421875 374.875 496.660156 357.308594 496.660156 344.972656 C 496.660156 329.621094 504.117188 317.15625 513.308594 317.15625 Z M 513.308594 317.15625 " fill-opacity="1" fill-rule="evenodd"/><path fill="#ffb1a5" d="M 450.617188 435.71875 C 450.617188 435.71875 451.25 442.132812 450.617188 450.285156 C 449.828125 460.492188 449.898438 477.859375 457.871094 485.804688 C 462.078125 489.996094 500.660156 501.429688 526.917969 511.019531 C 540.875 516.121094 542.472656 518.601562 553.179688 523.820312 C 565.058594 529.613281 561.71875 540.035156 561.023438 544.707031 C 558.003906 565.191406 476.734375 584.78125 476.734375 584.78125 L 469.824219 584.8125 L 470.191406 585.28125 L 417.113281 585.042969 L 364.039062 585.28125 L 364.40625 584.8125 L 357.492188 584.78125 C 357.492188 584.78125 276.222656 565.191406 273.199219 544.707031 C 272.511719 540.035156 269.167969 529.613281 281.050781 523.820312 C 294.363281 517.335938 305.304688 509.785156 322.410156 503.664062 C 344.9375 495.601562 372.695312 489.453125 376.355469 485.804688 C 384.332031 477.859375 384.398438 460.492188 383.609375 450.285156 C 382.976562 442.132812 383.609375 435.71875 383.609375 435.71875 Z M 450.617188 435.71875 " fill-opacity="1" fill-rule="evenodd"/><path fill="#2c3152" d="M 466.257812 435.152344 C 444.652344 452.648438 384.863281 451.398438 384.449219 445.988281 C 383.816406 437.835938 383.65625 435.722656 383.65625 435.722656 L 452.199219 430.445312 C 452.199219 430.445312 466.304688 433.484375 466.257812 435.152344 Z M 466.257812 435.152344 " fill-opacity="1" fill-rule="evenodd"/><path fill="#ffb1a5" d="M 442.335938 287.6875 C 458.382812 294.957031 475.207031 307.042969 490.132812 309.335938 C 498.785156 310.660156 510.515625 325.207031 509.53125 331.011719 C 505.855469 352.675781 496.441406 369.8125 489.507812 385.582031 C 472.484375 424.304688 433.421875 448.480469 396.601562 448.480469 C 368.023438 448.480469 359.121094 434.859375 342.199219 411.699219 C 326.0625 389.617188 317.5 356.738281 317.5 312.542969 C 317.5 283.175781 338.292969 266.992188 360.183594 250.488281 C 387.738281 229.714844 420.382812 277.75 442.335938 287.6875 Z M 442.335938 287.6875 " fill-opacity="1" fill-rule="evenodd"/><path fill="#2c3152" d="M 388.816406 388.882812 C 388.816406 388.882812 394.105469 389.542969 401.695312 388.980469 C 403.125 388.859375 404.566406 388.757812 406.078125 388.628906 C 407.503906 388.5 409.023438 388.390625 410.523438 388.230469 C 415.164062 387.699219 420.121094 386.9375 425.335938 384.988281 C 426.480469 384.359375 427.960938 384.765625 428.59375 385.914062 C 429.222656 387.0625 428.746094 388.527344 427.605469 389.15625 C 423.324219 392.394531 419.015625 394.746094 414.722656 396.542969 C 412.613281 397.425781 410.582031 398.09375 408.640625 398.585938 C 406.40625 399.160156 404.238281 399.496094 402.257812 399.6875 C 393.164062 400.59375 386.863281 399.0625 386.863281 399.0625 C 384.089844 398.515625 382.246094 395.800781 382.753906 393 C 383.335938 390.175781 386.042969 388.332031 388.816406 388.882812 Z M 388.816406 388.882812 " fill-opacity="1" fill-rule="evenodd"/><path fill="#2c3152" d="M 367.761719 311.1875 C 367.761719 311.1875 360.878906 305.878906 347.785156 308.21875 C 335.449219 310.425781 328.035156 317.703125 328.035156 317.703125 C 328.035156 317.703125 329.898438 311.15625 335.761719 306.847656 C 339.226562 304.300781 346.6875 303.179688 348.960938 302.914062 C 357.820312 301.882812 368.75 304.457031 368.433594 305.796875 C 368.433594 305.796875 367.632812 310.535156 367.761719 311.1875 Z M 367.761719 311.1875 " fill-opacity="1" fill-rule="evenodd"/><path fill="#2c3152" d="M 417.535156 309.984375 C 417.535156 309.984375 424.414062 304.664062 437.511719 306.988281 C 449.851562 309.179688 457.273438 316.449219 457.273438 316.449219 C 457.273438 316.449219 455.402344 309.902344 449.53125 305.601562 C 446.0625 303.058594 438.601562 301.949219 436.328125 301.6875 C 427.46875 300.664062 416.542969 303.253906 416.859375 304.59375 C 416.859375 304.59375 417.664062 309.332031 417.535156 309.984375 Z M 417.535156 309.984375 " fill-opacity="1" fill-rule="evenodd"/><path fill="#2c3152" d="M 388.921875 345.707031 L 382.792969 368.667969 C 382.597656 369.398438 383.007812 370.160156 383.738281 370.394531 L 396.128906 374.457031 C 396.878906 374.703125 397.6875 374.292969 397.929688 373.542969 C 398.175781 372.789062 397.765625 371.980469 397.015625 371.734375 L 385.914062 368.097656 C 385.914062 368.097656 391.691406 346.441406 391.691406 346.441406 C 391.890625 345.679688 391.441406 344.894531 390.675781 344.691406 C 389.914062 344.488281 389.125 344.941406 388.921875 345.707031 Z M 388.921875 345.707031 " fill-opacity="1" fill-rule="evenodd"/><path fill="#2c3152" d="M 369.117188 332.222656 C 369.085938 332.902344 369 333.570312 368.867188 334.230469 C 368.730469 334.890625 368.550781 335.527344 368.320312 336.144531 C 368.089844 336.761719 367.816406 337.34375 367.496094 337.894531 C 367.179688 338.441406 366.824219 338.945312 366.429688 339.410156 C 366.039062 339.871094 365.617188 340.277344 365.164062 340.632812 C 364.710938 340.988281 364.238281 341.285156 363.742188 341.519531 C 363.25 341.753906 362.742188 341.925781 362.222656 342.03125 C 361.707031 342.140625 361.183594 342.179688 360.664062 342.15625 C 360.140625 342.128906 359.628906 342.039062 359.125 341.878906 C 358.617188 341.722656 358.132812 341.503906 357.660156 341.21875 C 357.191406 340.9375 356.75 340.597656 356.335938 340.199219 C 355.917969 339.800781 355.539062 339.351562 355.195312 338.855469 C 354.847656 338.355469 354.546875 337.820312 354.285156 337.242188 C 354.019531 336.664062 353.804688 336.058594 353.636719 335.421875 C 353.46875 334.785156 353.347656 334.132812 353.28125 333.460938 C 353.210938 332.792969 353.195312 332.117188 353.226562 331.441406 C 353.261719 330.761719 353.34375 330.09375 353.480469 329.433594 C 353.613281 328.773438 353.796875 328.136719 354.027344 327.519531 C 354.257812 326.902344 354.53125 326.320312 354.847656 325.769531 C 355.167969 325.222656 355.523438 324.714844 355.914062 324.253906 C 356.308594 323.792969 356.730469 323.386719 357.183594 323.03125 C 357.632812 322.675781 358.109375 322.378906 358.601562 322.144531 C 359.097656 321.910156 359.605469 321.738281 360.121094 321.628906 C 360.640625 321.523438 361.160156 321.484375 361.683594 321.507812 C 362.203125 321.535156 362.71875 321.625 363.222656 321.78125 C 363.726562 321.941406 364.214844 322.160156 364.683594 322.445312 C 365.152344 322.726562 365.59375 323.066406 366.011719 323.464844 C 366.425781 323.863281 366.804688 324.3125 367.152344 324.808594 C 367.496094 325.304688 367.800781 325.84375 368.0625 326.421875 C 368.324219 327 368.539062 327.605469 368.707031 328.242188 C 368.878906 328.878906 368.996094 329.53125 369.066406 330.203125 C 369.132812 330.871094 369.152344 331.546875 369.117188 332.222656 Z M 369.117188 332.222656 " fill-opacity="1" fill-rule="nonzero"/><path fill="#2c3152" d="M 439.671875 332.75 C 439.675781 333.46875 439.625 334.183594 439.519531 334.886719 C 439.414062 335.59375 439.257812 336.28125 439.046875 336.945312 C 438.839844 337.613281 438.582031 338.246094 438.277344 338.847656 C 437.972656 339.445312 437.625 340 437.234375 340.511719 C 436.847656 341.023438 436.421875 341.480469 435.964844 341.878906 C 435.503906 342.28125 435.019531 342.621094 434.507812 342.902344 C 434 343.179688 433.472656 343.390625 432.929688 343.53125 C 432.386719 343.675781 431.839844 343.746094 431.285156 343.75 C 430.730469 343.753906 430.183594 343.683594 429.636719 343.546875 C 429.09375 343.410156 428.566406 343.203125 428.050781 342.929688 C 427.539062 342.65625 427.050781 342.320312 426.589844 341.925781 C 426.125 341.527344 425.699219 341.074219 425.304688 340.566406 C 424.910156 340.058594 424.558594 339.507812 424.246094 338.910156 C 423.9375 338.3125 423.671875 337.683594 423.457031 337.019531 C 423.242188 336.355469 423.078125 335.671875 422.96875 334.964844 C 422.855469 334.257812 422.800781 333.546875 422.796875 332.828125 C 422.792969 332.105469 422.84375 331.394531 422.949219 330.6875 C 423.054688 329.980469 423.210938 329.296875 423.417969 328.628906 C 423.628906 327.964844 423.886719 327.332031 424.191406 326.730469 C 424.496094 326.128906 424.84375 325.574219 425.230469 325.066406 C 425.621094 324.554688 426.046875 324.097656 426.503906 323.695312 C 426.964844 323.292969 427.449219 322.953125 427.957031 322.675781 C 428.46875 322.398438 428.996094 322.1875 429.539062 322.042969 C 430.082031 321.902344 430.628906 321.828125 431.183594 321.828125 C 431.738281 321.824219 432.285156 321.890625 432.832031 322.027344 C 433.375 322.167969 433.902344 322.371094 434.414062 322.644531 C 434.929688 322.917969 435.417969 323.253906 435.878906 323.652344 C 436.339844 324.050781 436.769531 324.503906 437.164062 325.007812 C 437.558594 325.515625 437.910156 326.070312 438.222656 326.664062 C 438.53125 327.261719 438.792969 327.894531 439.007812 328.558594 C 439.226562 329.222656 439.386719 329.90625 439.5 330.609375 C 439.609375 331.316406 439.667969 332.03125 439.671875 332.75 Z M 439.671875 332.75 " fill-opacity="1" fill-rule="nonzero"/><path fill="#2c3152" d="M 482.917969 308.578125 C 482.917969 308.578125 500.976562 350.179688 489.941406 384.636719 C 489.941406 384.636719 516.886719 338.40625 506.632812 306.757812 Z M 482.917969 308.578125 " fill-opacity="1" fill-rule="evenodd"/><path fill="#ffffff" d="M 515.691406 373.261719 C 515.691406 373.746094 515.644531 374.226562 515.550781 374.703125 C 515.460938 375.179688 515.324219 375.644531 515.140625 376.09375 C 514.960938 376.542969 514.738281 376.96875 514.476562 377.375 C 514.210938 377.777344 513.914062 378.152344 513.578125 378.496094 C 513.242188 378.839844 512.878906 379.144531 512.484375 379.417969 C 512.089844 379.6875 511.675781 379.914062 511.238281 380.101562 C 510.800781 380.285156 510.347656 380.425781 509.886719 380.523438 C 509.421875 380.617188 508.953125 380.664062 508.476562 380.664062 C 508.003906 380.664062 507.535156 380.617188 507.070312 380.523438 C 506.605469 380.425781 506.15625 380.285156 505.71875 380.101562 C 505.28125 379.914062 504.863281 379.6875 504.472656 379.417969 C 504.078125 379.144531 503.710938 378.839844 503.378906 378.496094 C 503.042969 378.152344 502.742188 377.777344 502.480469 377.375 C 502.21875 376.96875 501.996094 376.542969 501.8125 376.09375 C 501.632812 375.644531 501.496094 375.179688 501.402344 374.703125 C 501.3125 374.226562 501.265625 373.746094 501.265625 373.261719 C 501.265625 372.773438 501.3125 372.292969 501.402344 371.816406 C 501.496094 371.339844 501.632812 370.875 501.8125 370.429688 C 501.996094 369.976562 502.21875 369.550781 502.480469 369.148438 C 502.742188 368.742188 503.042969 368.371094 503.378906 368.027344 C 503.710938 367.683594 504.078125 367.375 504.46875 367.105469 C 504.863281 366.835938 505.28125 366.605469 505.71875 366.421875 C 506.15625 366.234375 506.605469 366.09375 507.070312 366 C 507.535156 365.90625 508.003906 365.859375 508.476562 365.859375 C 508.953125 365.859375 509.421875 365.90625 509.886719 366 C 510.347656 366.09375 510.800781 366.234375 511.238281 366.421875 C 511.675781 366.605469 512.089844 366.835938 512.484375 367.105469 C 512.878906 367.375 513.242188 367.683594 513.578125 368.027344 C 513.914062 368.371094 514.210938 368.742188 514.476562 369.148438 C 514.738281 369.550781 514.960938 369.976562 515.140625 370.429688 C 515.324219 370.875 515.460938 371.339844 515.550781 371.816406 C 515.644531 372.292969 515.691406 372.773438 515.691406 373.261719 Z M 515.691406 373.261719 " fill-opacity="1" fill-rule="nonzero"/><path fill="#34a0a4" d="M 329.601562 501.949219 L 415.167969 560.042969 L 500.011719 501.949219 C 500.011719 501.949219 617.160156 527.609375 651.019531 568.59375 C 695.800781 622.828125 584.207031 672.339844 570.234375 733.585938 C 551.945312 813.679688 516.035156 1195.460938 516.035156 1195.460938 L 371.910156 1197.621094 L 313.503906 1185.222656 C 313.503906 1185.222656 295.246094 727.210938 291.789062 633.363281 C 289.648438 575.332031 142.1875 627.785156 183.152344 578.183594 C 217.011719 537.199219 329.601562 501.949219 329.601562 501.949219 Z M 329.601562 501.949219 " fill-opacity="1" fill-rule="evenodd"/><path fill="#ffffff" d="M 529.265625 508.917969 C 533.515625 510.890625 548.511719 514.902344 563.867188 519.675781 C 580.667969 524.898438 597.929688 530.929688 602.710938 533.480469 C 631.019531 548.566406 655.472656 562.460938 676.421875 600.382812 C 690.273438 625.460938 737.082031 744.710938 748.179688 813.597656 C 760.195312 888.136719 733.226562 971.824219 682.644531 1000.941406 C 648.816406 1020.421875 631.035156 1027.570312 622.691406 967.082031 C 621.933594 961.542969 631.851562 945.117188 639.179688 916.367188 C 651.136719 869.464844 608.542969 778.574219 606.332031 770.3125 C 614.507812 884.195312 635.335938 1180.363281 635.335938 1180.363281 C 591.054688 1187.167969 522.394531 1199.660156 459.339844 1196.898438 C 459.339844 1196.898438 451.691406 686.269531 459.34375 668.503906 Z M 529.265625 508.917969 " fill-opacity="1" fill-rule="evenodd"/><path fill="#ffffff" d="M 171.628906 591.039062 C 170.5625 592.972656 121.453125 737.28125 124.570312 869.828125 C 125.304688 900.875 121.835938 951.726562 127.050781 975.035156 C 137.015625 1019.503906 161.421875 1039.6875 186.359375 1039.09375 C 241.949219 1037.792969 224.351562 812.582031 224.757812 811.082031 C 216.578125 924.964844 194.359375 1180.226562 194.359375 1180.226562 C 238.644531 1187.03125 307.304688 1199.523438 370.363281 1196.761719 C 370.363281 1196.761719 382.324219 686.277344 374.675781 668.511719 L 304.753906 508.921875 C 300.503906 510.898438 285.507812 514.90625 270.148438 519.683594 C 253.351562 524.90625 236.085938 530.9375 231.308594 533.484375 C 202.992188 548.574219 192.574219 553.117188 171.628906 591.039062 Z M 171.628906 591.039062 " fill-opacity="1" fill-rule="evenodd"/><path fill="#34a0a4" d="M 269.863281 518.695312 L 288.429688 627.613281 L 314.070312 627.613281 L 314.070312 674.398438 L 375.453125 694.910156 L 374.632812 641.371094 L 295.808594 510.65625 Z M 269.863281 518.695312 " fill-opacity="0.2706" fill-rule="evenodd"/><path fill="#34a0a4" d="M 561.050781 519.152344 L 556.667969 632.777344 L 531.023438 632.777344 L 536.402344 669.730469 L 456.625 695.023438 C 456.625 695.023438 451.710938 681.53125 456.242188 669.914062 C 469.894531 634.894531 508.34375 564.457031 536.402344 511.425781 Z M 561.050781 519.152344 " fill-opacity="0.2706" fill-rule="evenodd"/><path fill="#ffffff" d="M 269.863281 518.695312 L 295.808594 623.925781 L 321.453125 623.925781 L 321.453125 670.710938 L 374.15625 684.761719 C 374.15625 684.761719 376.613281 648.164062 370.382812 634.320312 C 357.324219 605.304688 329.578125 501.949219 329.578125 501.949219 Z M 269.863281 518.695312 " fill-opacity="1" fill-rule="evenodd"/><path fill="#34a0a4" d="M 348.070312 799.210938 C 348.070312 799.210938 348.722656 826.554688 337.882812 855.070312 C 326.890625 884.019531 304.207031 914.105469 257.648438 918.898438 L 253.542969 919.320312 L 252.699219 911.109375 L 256.804688 910.6875 C 299.425781 906.300781 320.101562 878.644531 330.167969 852.144531 C 340.398438 825.214844 339.824219 799.402344 339.824219 799.402344 L 339.726562 795.277344 L 347.984375 795.085938 Z M 348.070312 799.210938 " fill-opacity="1" fill-rule="evenodd"/><path fill="#34a0a4" d="M 272.902344 800.136719 C 272.902344 800.136719 272.921875 825.957031 283.773438 852.640625 C 294.445312 878.902344 315.757812 906.078125 358.46875 909.476562 L 362.582031 909.804688 L 361.925781 918.035156 L 357.8125 917.707031 C 311.160156 913.988281 287.785156 884.433594 276.128906 855.75 C 264.632812 827.488281 264.648438 800.136719 264.648438 800.136719 L 264.644531 796.011719 L 272.902344 796.011719 Z M 272.902344 800.136719 " fill-opacity="1" fill-rule="evenodd"/><path fill="#2c3152" d="M 309.855469 503.335938 C 301.898438 565.03125 302.644531 625.199219 311.84375 683.835938 C 312.5 688 309.648438 691.910156 305.476562 692.566406 C 301.3125 693.21875 297.402344 690.367188 296.746094 686.203125 C 287.328125 626.160156 286.546875 564.558594 294.695312 501.382812 C 295.230469 497.203125 307.285156 496.242188 308.472656 497.894531 C 309.566406 499.414062 310.113281 501.332031 309.855469 503.335938 Z M 309.855469 503.335938 " fill-opacity="1" fill-rule="evenodd"/><path fill="#2c3152" d="M 337.40625 800.90625 L 331.820312 698.992188 C 331.820312 698.992188 303.832031 693.015625 303.832031 693.015625 C 303.832031 693.015625 284.488281 699.007812 284.488281 699.007812 L 279.292969 800.292969 L 264.023438 799.511719 L 269.765625 687.574219 L 303.121094 677.242188 L 346.445312 686.492188 L 352.675781 800.070312 Z M 337.40625 800.90625 " fill-opacity="1" fill-rule="evenodd"/><path fill="#2c3152" d="M 515.339844 498.992188 C 515.339844 498.992188 533.003906 501.929688 533.027344 504.445312 C 533.257812 530.226562 533.019531 678.835938 524.449219 736.925781 L 523.160156 745.640625 L 505.71875 743.066406 L 507.003906 734.351562 C 516.308594 671.347656 515.355469 500.785156 515.355469 500.785156 Z M 515.339844 498.992188 " fill-opacity="1" fill-rule="evenodd"/><path fill="#34a0a4" d="M 515.722656 720.59375 C 533.265625 720.59375 547.414062 734.609375 547.414062 751.742188 C 547.414062 768.878906 533.265625 782.894531 515.722656 782.894531 C 498.175781 782.894531 484.039062 768.878906 484.039062 751.742188 C 484.039062 734.609375 498.175781 720.59375 515.722656 720.59375 Z M 515.722656 720.59375 " fill-opacity="1" fill-rule="evenodd"/><path fill="#2c3152" d="M 492.828125 752.679688 C 492.75 746.277344 495.253906 740.496094 499.316406 736.261719 C 503.574219 731.816406 509.546875 729.148438 516.109375 729.109375 C 522.84375 729.140625 528.949219 731.984375 533.304688 736.566406 C 537.65625 741.136719 540.183594 747.464844 540.03125 754.347656 C 539.679688 761.210938 536.699219 767.328125 532.03125 771.574219 C 527.367188 775.816406 521.089844 778.21875 514.386719 777.769531 C 507.859375 777.273438 502.105469 774.199219 498.167969 769.484375 C 494.414062 764.980469 492.3125 759.046875 492.828125 752.679688 Z M 492.828125 752.679688 C 492.886719 758.847656 495.371094 764.378906 499.359375 768.40625 C 503.253906 772.332031 508.597656 774.753906 514.492188 774.726562 C 520.207031 774.75 525.363281 772.355469 529.15625 768.558594 C 532.828125 764.890625 535.1875 759.839844 535.296875 754.179688 C 535.574219 748.527344 533.558594 743.34375 530.152344 739.429688 C 526.640625 735.390625 521.683594 732.644531 515.996094 732.269531 C 510.132812 731.816406 504.640625 733.851562 500.480469 737.480469 C 496.21875 741.199219 493.335938 746.535156 492.828125 752.679688 Z M 492.828125 752.679688 " fill-opacity="1" fill-rule="evenodd"/><path fill="#ffffff" d="M 561.050781 519.152344 L 544.527344 623.925781 L 518.886719 623.925781 L 524.261719 660.878906 C 501.585938 668.839844 478.914062 676.796875 456.242188 684.761719 C 452.570312 629.511719 481.058594 569.058594 499.984375 501.949219 C 521.554688 502.832031 541.6875 509.453125 561.050781 519.152344 Z M 561.050781 519.152344 " fill-opacity="1" fill-rule="evenodd"/><path fill="#34a0a4" d="M 362.730469 732.445312 C 362.730469 732.863281 362.691406 733.277344 362.613281 733.6875 C 362.53125 734.101562 362.417969 734.5 362.261719 734.886719 C 362.109375 735.273438 361.917969 735.640625 361.695312 735.988281 C 361.472656 736.339844 361.21875 736.660156 360.933594 736.957031 C 360.648438 737.253906 360.339844 737.519531 360.003906 737.75 C 359.671875 737.984375 359.316406 738.179688 358.945312 738.339844 C 358.574219 738.5 358.191406 738.621094 357.792969 738.703125 C 357.398438 738.785156 357 738.824219 356.597656 738.824219 C 356.195312 738.824219 355.796875 738.785156 355.402344 738.703125 C 355.007812 738.621094 354.625 738.5 354.253906 738.339844 C 353.882812 738.179688 353.527344 737.984375 353.191406 737.75 C 352.859375 737.519531 352.546875 737.253906 352.265625 736.957031 C 351.980469 736.660156 351.726562 736.339844 351.5 735.988281 C 351.277344 735.640625 351.089844 735.273438 350.933594 734.886719 C 350.78125 734.5 350.664062 734.101562 350.585938 733.6875 C 350.507812 733.277344 350.46875 732.863281 350.46875 732.445312 C 350.46875 732.023438 350.507812 731.609375 350.585938 731.199219 C 350.664062 730.789062 350.78125 730.390625 350.933594 730 C 351.089844 729.613281 351.277344 729.246094 351.5 728.898438 C 351.726562 728.550781 351.980469 728.226562 352.265625 727.929688 C 352.546875 727.636719 352.859375 727.371094 353.191406 727.136719 C 353.527344 726.90625 353.882812 726.707031 354.253906 726.546875 C 354.625 726.386719 355.007812 726.265625 355.402344 726.183594 C 355.796875 726.101562 356.195312 726.0625 356.597656 726.0625 C 357 726.0625 357.398438 726.101562 357.792969 726.183594 C 358.191406 726.265625 358.574219 726.386719 358.945312 726.546875 C 359.316406 726.707031 359.671875 726.90625 360.003906 727.136719 C 360.339844 727.371094 360.648438 727.636719 360.933594 727.929688 C 361.21875 728.226562 361.472656 728.550781 361.695312 728.898438 C 361.917969 729.246094 362.109375 729.613281 362.261719 730 C 362.417969 730.390625 362.53125 730.789062 362.613281 731.199219 C 362.691406 731.609375 362.730469 732.023438 362.730469 732.445312 Z M 362.730469 732.445312 " fill-opacity="0.2706" fill-rule="nonzero"/><path fill="#ffffff" d="M 582.542969 741.734375 C 582.542969 741.734375 618.820312 856.292969 589.65625 899.226562 C 544.140625 966.222656 540.976562 1010.167969 538.847656 1019.886719 C 534.21875 1041.179688 602.71875 1091.164062 602.71875 1069.542969 C 602.71875 1069.542969 762.101562 984.882812 751 846.667969 C 739.902344 708.449219 582.542969 741.734375 582.542969 741.734375 Z M 582.542969 741.734375 " fill-opacity="1" fill-rule="evenodd"/><path fill="#34a0a4" d="M 229.070312 964.859375 C 229.070312 964.859375 218.152344 786.96875 221.269531 670.421875 L 221.316406 668.839844 L 218.152344 668.753906 L 218.113281 670.335938 C 214.992188 786.996094 225.910156 965.054688 225.910156 965.054688 L 226.011719 966.628906 L 229.164062 966.4375 Z M 229.070312 964.859375 " fill-opacity="1" fill-rule="evenodd"/><path fill="#34a0a4" d="M 240.546875 730.832031 L 314.351562 730.832031 L 314.351562 756.890625 L 240.546875 756.890625 Z M 240.546875 730.832031 " fill-opacity="0.2706" fill-rule="evenodd"/><path fill="#34a0a4" d="M 596.375 678.335938 L 600.460938 874.511719 C 600.492188 875.464844 599.730469 876.25 598.777344 876.28125 C 597.824219 876.316406 597.027344 875.570312 596.996094 874.617188 L 592.929688 678.457031 C 592.898438 677.5 593.640625 676.699219 594.59375 676.667969 C 595.546875 676.636719 596.34375 677.382812 596.375 678.335938 Z M 596.375 678.335938 " fill-opacity="1" fill-rule="evenodd"/></svg>