<svg xmlns="http://www.w3.org/2000/svg" xmlns:xlink="http://www.w3.org/1999/xlink" width="1080" zoomAndPan="magnify" viewBox="0 0 810 809.999993" height="1080" preserveAspectRatio="xMidYMid meet" version="1.0"><defs><clipPath id="f6eb7797f3"><path d="M 446 474 L 762.183594 474 L 762.183594 810 L 446 810 Z M 446 474 " clip-rule="nonzero"/></clipPath><clipPath id="65f16b5018"><path d="M 511 736 L 762.183594 736 L 762.183594 810 L 511 810 Z M 511 736 " clip-rule="nonzero"/></clipPath><clipPath id="fcb711ccbd"><path d="M 48.183594 474 L 360 474 L 360 810 L 48.183594 810 Z M 48.183594 474 " clip-rule="nonzero"/></clipPath><clipPath id="c06e026562"><path d="M 48.183594 736 L 295 736 L 295 810 L 48.183594 810 Z M 48.183594 736 " clip-rule="nonzero"/></clipPath><clipPath id="e8a6ad7189"><path d="M 242 96.367188 L 420 96.367188 L 420 246 L 242 246 Z M 242 96.367188 " clip-rule="nonzero"/></clipPath></defs><rect x="-81" width="972" fill="#ffffff" y="-80.999999" height="971.999992" fill-opacity="1"/><rect x="-81" width="972" fill="#ffffff" y="-80.999999" height="971.999992" fill-opacity="1"/><rect x="-81" width="972" fill="#ffffff" y="-80.999999" height="971.999992" fill-opacity="1"/><path fill="#2c3152" d="M 518.679688 266.589844 C 518.667969 266.597656 504.707031 324.742188 429.816406 330.898438 C 416.214844 332.019531 309.863281 355.667969 313.738281 340.441406 C 326.058594 292.011719 323.863281 333.539062 318.210938 322.851562 C 299.460938 287.394531 283.53125 248.125 283.53125 208.886719 C 283.53125 136.449219 340.257812 99.886719 388.957031 99.886719 C 444.105469 99.886719 510.914062 122.175781 531.011719 172.816406 C 540.652344 197.117188 544.167969 247.027344 518.679688 266.589844 Z M 518.679688 266.589844 " fill-opacity="1" fill-rule="evenodd"/><path fill="#ffb1a5" d="M 502.949219 252.355469 C 514.722656 252.355469 524.285156 268.335938 524.285156 288.019531 C 524.285156 307.699219 499.277344 332.78125 487.503906 332.78125 C 485.183594 332.78125 482.957031 332.164062 480.867188 331.023438 C 472.335938 326.355469 481.609375 303.835938 481.609375 288.019531 C 481.609375 268.335938 491.171875 252.355469 502.949219 252.355469 Z M 502.949219 252.355469 " fill-opacity="1" fill-rule="evenodd"/><path fill="#ffb1a5" d="M 434.636719 394.683594 C 434.636719 394.683594 435.335938 401.792969 434.636719 410.828125 C 433.757812 422.144531 433.839844 441.398438 442.675781 450.207031 C 447.335938 454.851562 490.085938 467.527344 519.179688 478.15625 C 534.648438 483.8125 536.417969 486.566406 548.28125 492.351562 C 561.445312 498.773438 557.742188 510.324219 556.976562 515.503906 C 553.628906 538.210938 463.574219 559.933594 463.574219 559.933594 L 455.917969 559.964844 L 456.324219 560.484375 L 397.511719 560.222656 L 338.703125 560.484375 L 339.109375 559.964844 L 331.449219 559.933594 C 331.449219 559.933594 241.394531 538.210938 238.042969 515.503906 C 237.28125 510.324219 233.578125 498.773438 246.742188 492.351562 C 261.492188 485.160156 273.617188 476.792969 292.574219 470.003906 C 317.53125 461.066406 348.289062 454.25 352.347656 450.207031 C 361.183594 441.398438 361.261719 422.144531 360.386719 410.828125 C 359.6875 401.792969 360.386719 394.683594 360.386719 394.683594 Z M 434.636719 394.683594 " fill-opacity="1" fill-rule="evenodd"/><path fill="#2c3152" d="M 364.304688 394.671875 L 434.640625 383.179688 C 434.640625 383.179688 435.339844 401.753906 434.640625 410.824219 C 434.441406 413.332031 434.292969 416.269531 434.28125 419.378906 C 405.035156 425.339844 361.644531 412.121094 361.269531 407.027344 C 360.566406 397.433594 360.386719 395.015625 360.386719 395.015625 Z M 364.304688 394.671875 " fill-opacity="1" fill-rule="evenodd"/><path fill="#ffb1a5" d="M 346.871094 213.082031 C 364.242188 199.976562 395.28125 176.441406 428.601562 198.402344 C 453.847656 215.039062 468.863281 269.046875 475.996094 270.144531 C 485.582031 271.609375 487.589844 281.058594 486.496094 287.5 C 482.425781 311.511719 485.425781 321.621094 477.746094 339.101562 C 458.882812 382.027344 415.597656 408.832031 374.796875 408.832031 C 343.128906 408.832031 333.265625 393.730469 314.515625 368.054688 C 296.632812 343.574219 287.144531 307.125 287.144531 258.128906 C 287.144531 225.574219 322.617188 231.378906 346.871094 213.082031 Z M 346.871094 213.082031 " fill-opacity="1" fill-rule="evenodd"/><path fill="#ffffff" d="M 373.082031 340.738281 C 373.082031 340.738281 378.941406 341.46875 387.351562 340.847656 C 388.9375 340.714844 390.53125 340.601562 392.207031 340.457031 C 393.789062 340.3125 395.472656 340.191406 397.132812 340.015625 C 402.273438 339.429688 407.765625 338.582031 413.546875 336.421875 C 414.8125 335.726562 416.457031 336.175781 417.15625 337.449219 C 417.855469 338.71875 417.328125 340.34375 416.058594 341.039062 C 411.316406 344.632812 406.542969 347.242188 401.785156 349.234375 C 399.449219 350.210938 397.195312 350.949219 395.046875 351.496094 C 392.570312 352.136719 390.167969 352.503906 387.972656 352.714844 C 377.898438 353.722656 370.914062 352.027344 370.914062 352.027344 C 367.84375 351.417969 365.800781 348.40625 366.363281 345.304688 C 367.007812 342.171875 370.007812 340.128906 373.082031 340.738281 Z M 373.082031 340.738281 " fill-opacity="1" fill-rule="evenodd"/><path fill="#2c3152" d="M 349.742188 252.886719 C 349.742188 252.886719 342.117188 246.996094 327.605469 249.59375 C 313.933594 252.039062 305.71875 260.109375 305.71875 260.109375 C 305.71875 260.109375 307.785156 252.847656 314.285156 248.074219 C 318.121094 245.25 326.390625 244.007812 328.910156 243.714844 C 338.726562 242.566406 350.832031 245.425781 350.488281 246.910156 C 350.488281 246.910156 349.597656 252.160156 349.742188 252.886719 Z M 349.742188 252.886719 " fill-opacity="1" fill-rule="evenodd"/><path fill="#2c3152" d="M 405.570312 253.839844 C 405.570312 253.839844 413.765625 248.773438 427.929688 252.855469 C 441.273438 256.703125 448.609375 265.578125 448.609375 265.578125 C 448.609375 265.578125 447.304688 258.144531 441.335938 252.722656 C 437.808594 249.515625 429.714844 247.425781 427.242188 246.871094 C 417.59375 244.71875 405.257812 246.308594 405.449219 247.820312 C 405.449219 247.820312 405.785156 253.136719 405.570312 253.839844 Z M 405.570312 253.839844 " fill-opacity="1" fill-rule="evenodd"/><path fill="#2c3152" d="M 373.179688 292.875 L 366.390625 318.332031 C 366.171875 319.144531 366.628906 319.984375 367.433594 320.25 L 381.164062 324.75 C 381.996094 325.023438 382.890625 324.566406 383.164062 323.734375 C 383.433594 322.902344 382.980469 322.007812 382.148438 321.734375 L 369.847656 317.699219 C 369.847656 317.699219 376.25 293.695312 376.25 293.695312 C 376.46875 292.847656 375.972656 291.976562 375.121094 291.753906 C 374.277344 291.527344 373.40625 292.03125 373.179688 292.875 Z M 373.179688 292.875 " fill-opacity="1" fill-rule="evenodd"/><path fill="#2c3152" d="M 351.28125 277.929688 C 351.246094 278.683594 351.152344 279.421875 351.003906 280.15625 C 350.855469 280.886719 350.652344 281.59375 350.398438 282.277344 C 350.140625 282.960938 349.835938 283.605469 349.484375 284.214844 C 349.132812 284.824219 348.738281 285.382812 348.304688 285.894531 C 347.871094 286.40625 347.402344 286.859375 346.902344 287.253906 C 346.398438 287.648438 345.875 287.972656 345.324219 288.234375 C 344.777344 288.496094 344.214844 288.6875 343.640625 288.804688 C 343.066406 288.925781 342.492188 288.96875 341.914062 288.941406 C 341.335938 288.914062 340.765625 288.8125 340.207031 288.636719 C 339.648438 288.460938 339.105469 288.21875 338.585938 287.902344 C 338.066406 287.589844 337.578125 287.210938 337.117188 286.769531 C 336.65625 286.328125 336.234375 285.832031 335.851562 285.28125 C 335.472656 284.730469 335.132812 284.132812 334.84375 283.492188 C 334.554688 282.851562 334.316406 282.179688 334.128906 281.476562 C 333.941406 280.769531 333.808594 280.046875 333.734375 279.304688 C 333.65625 278.5625 333.636719 277.8125 333.671875 277.0625 C 333.710938 276.3125 333.804688 275.570312 333.953125 274.839844 C 334.101562 274.105469 334.304688 273.398438 334.558594 272.714844 C 334.816406 272.03125 335.117188 271.386719 335.472656 270.777344 C 335.824219 270.167969 336.214844 269.609375 336.652344 269.097656 C 337.085938 268.585938 337.554688 268.132812 338.054688 267.738281 C 338.558594 267.347656 339.082031 267.019531 339.628906 266.757812 C 340.179688 266.496094 340.738281 266.304688 341.3125 266.1875 C 341.886719 266.070312 342.464844 266.023438 343.042969 266.050781 C 343.621094 266.082031 344.1875 266.183594 344.75 266.355469 C 345.308594 266.53125 345.847656 266.773438 346.367188 267.089844 C 346.886719 267.402344 347.378906 267.78125 347.839844 268.222656 C 348.300781 268.664062 348.71875 269.160156 349.101562 269.710938 C 349.484375 270.261719 349.820312 270.859375 350.113281 271.5 C 350.402344 272.140625 350.640625 272.8125 350.828125 273.519531 C 351.015625 274.222656 351.148438 274.945312 351.222656 275.6875 C 351.300781 276.433594 351.320312 277.179688 351.28125 277.929688 Z M 351.28125 277.929688 " fill-opacity="1" fill-rule="nonzero"/><path fill="#2c3152" d="M 429.722656 278.878906 C 429.683594 279.675781 429.585938 280.460938 429.429688 281.234375 C 429.269531 282.011719 429.054688 282.761719 428.785156 283.488281 C 428.511719 284.210938 428.191406 284.898438 427.816406 285.542969 C 427.445312 286.1875 427.027344 286.78125 426.566406 287.324219 C 426.105469 287.867188 425.609375 288.347656 425.078125 288.765625 C 424.542969 289.183594 423.988281 289.53125 423.40625 289.804688 C 422.824219 290.082031 422.230469 290.285156 421.621094 290.410156 C 421.011719 290.535156 420.402344 290.585938 419.789062 290.554688 C 419.175781 290.523438 418.570312 290.417969 417.976562 290.230469 C 417.382812 290.046875 416.8125 289.789062 416.261719 289.453125 C 415.707031 289.121094 415.1875 288.722656 414.699219 288.253906 C 414.214844 287.785156 413.765625 287.257812 413.359375 286.675781 C 412.953125 286.089844 412.597656 285.457031 412.289062 284.777344 C 411.980469 284.097656 411.730469 283.382812 411.53125 282.636719 C 411.332031 281.886719 411.191406 281.121094 411.109375 280.332031 C 411.03125 279.546875 411.007812 278.753906 411.046875 277.957031 C 411.085938 277.160156 411.1875 276.375 411.34375 275.597656 C 411.503906 274.820312 411.71875 274.070312 411.988281 273.347656 C 412.257812 272.621094 412.582031 271.9375 412.953125 271.289062 C 413.328125 270.644531 413.746094 270.050781 414.207031 269.507812 C 414.667969 268.964844 415.164062 268.488281 415.695312 268.070312 C 416.226562 267.652344 416.785156 267.304688 417.367188 267.027344 C 417.945312 266.75 418.542969 266.546875 419.152344 266.421875 C 419.761719 266.296875 420.371094 266.25 420.984375 266.277344 C 421.597656 266.308594 422.203125 266.417969 422.792969 266.601562 C 423.386719 266.789062 423.960938 267.046875 424.511719 267.378906 C 425.0625 267.710938 425.582031 268.113281 426.070312 268.582031 C 426.558594 269.046875 427.007812 269.574219 427.414062 270.160156 C 427.816406 270.746094 428.175781 271.375 428.484375 272.054688 C 428.792969 272.734375 429.042969 273.449219 429.242188 274.195312 C 429.441406 274.945312 429.582031 275.710938 429.660156 276.5 C 429.742188 277.289062 429.761719 278.082031 429.722656 278.878906 Z M 429.722656 278.878906 " fill-opacity="1" fill-rule="nonzero"/><path fill="#76c893" d="M 306.246094 467.238281 L 401.0625 531.0625 L 495.074219 467.238281 C 495.074219 467.238281 624.882812 495.429688 662.402344 540.457031 C 712.023438 600.042969 588.367188 654.441406 572.886719 721.726562 C 552.621094 809.726562 512.832031 1229.171875 512.832031 1229.171875 L 353.128906 1231.546875 L 288.40625 1217.921875 C 288.40625 1217.921875 268.175781 714.722656 264.347656 611.617188 C 261.976562 547.859375 98.578125 605.488281 143.96875 550.992188 C 181.488281 505.964844 306.246094 467.238281 306.246094 467.238281 Z M 306.246094 467.238281 " fill-opacity="1" fill-rule="evenodd"/><g clip-path="url(#f6eb7797f3)"><path fill="#ffffff" d="M 527.492188 474.964844 C 532.199219 477.152344 548.816406 481.597656 565.828125 486.894531 C 584.445312 492.683594 603.574219 499.367188 608.875 502.195312 C 640.242188 518.921875 667.339844 534.324219 690.550781 576.363281 C 705.898438 604.164062 757.765625 736.363281 770.0625 812.730469 C 783.378906 895.367188 753.492188 988.140625 697.449219 1020.421875 C 659.964844 1042.015625 640.261719 1049.941406 631.015625 982.882812 C 630.171875 976.746094 641.160156 958.535156 649.285156 926.664062 C 662.53125 874.667969 615.335938 773.902344 612.882812 764.746094 C 621.945312 891 645.027344 1212.417969 645.027344 1212.417969 C 595.960938 1219.960938 519.878906 1233.808594 450.007812 1230.746094 C 450.007812 1230.746094 441.53125 671.578125 450.007812 651.882812 Z M 527.492188 474.964844 " fill-opacity="1" fill-rule="evenodd"/></g><g clip-path="url(#65f16b5018)"><path fill="#ffffff" d="M 621.097656 743.433594 C 621.097656 743.433594 521.328125 1068.601562 511.640625 1082.890625 C 506.488281 1090.46875 608.890625 1096.472656 608.890625 1096.472656 C 608.890625 1096.472656 785.496094 1002.617188 773.199219 849.394531 C 760.898438 696.167969 621.097656 743.433594 621.097656 743.433594 Z M 621.097656 743.433594 " fill-opacity="1" fill-rule="evenodd"/></g><g clip-path="url(#fcb711ccbd)"><path fill="#ffffff" d="M 278.699219 474.972656 C 273.992188 477.164062 257.375 481.609375 240.359375 486.902344 C 221.746094 492.691406 202.613281 499.378906 197.316406 502.203125 C 165.949219 518.929688 138.851562 534.335938 115.636719 576.375 C 100.289062 604.175781 48.425781 736.375 36.125 812.742188 C 22.808594 895.378906 52.695312 988.152344 108.742188 1020.433594 C 146.226562 1042.027344 165.929688 1049.953125 175.175781 982.894531 C 176.015625 976.757812 165.027344 958.546875 156.90625 926.671875 C 143.65625 874.679688 190.855469 773.914062 193.304688 764.757812 C 184.242188 891.007812 161.160156 1212.429688 161.160156 1212.429688 C 210.226562 1219.972656 286.308594 1233.820312 356.179688 1230.757812 C 356.179688 1230.757812 364.65625 671.589844 356.179688 651.894531 Z M 278.699219 474.972656 " fill-opacity="1" fill-rule="evenodd"/></g><path fill="#76c893" d="M 207.589844 720.980469 L 289.367188 720.980469 L 289.367188 749.867188 L 207.589844 749.867188 Z M 207.589844 720.980469 " fill-opacity="0.2706" fill-rule="evenodd"/><path fill="#76c893" d="M 240.089844 485.804688 L 260.660156 606.550781 L 289.074219 606.550781 L 289.074219 658.417969 L 357.085938 681.15625 L 356.183594 621.800781 L 268.839844 476.894531 Z M 240.089844 485.804688 " fill-opacity="0.2706" fill-rule="evenodd"/><path fill="#76c893" d="M 562.742188 486.3125 L 557.886719 612.277344 L 529.472656 612.277344 L 535.429688 653.242188 L 447.03125 681.28125 C 447.03125 681.28125 441.589844 666.324219 446.605469 653.445312 C 461.738281 614.621094 504.34375 536.535156 535.429688 477.742188 Z M 562.742188 486.3125 " fill-opacity="0.2706" fill-rule="evenodd"/><path fill="#ffffff" d="M 240.089844 485.804688 L 268.839844 602.464844 L 297.253906 602.464844 L 297.253906 654.328125 L 355.652344 669.90625 C 355.652344 669.90625 358.375 629.332031 351.46875 613.984375 C 337 581.816406 306.253906 467.238281 306.253906 467.238281 Z M 240.089844 485.804688 " fill-opacity="1" fill-rule="evenodd"/><path fill="#ffffff" d="M 562.742188 486.3125 L 544.433594 602.464844 L 516.023438 602.464844 L 521.976562 643.429688 C 496.855469 652.253906 471.730469 661.074219 446.605469 669.90625 C 442.539062 608.652344 474.105469 541.636719 495.078125 467.238281 C 518.980469 468.21875 541.289062 475.5625 562.742188 486.3125 Z M 562.742188 486.3125 " fill-opacity="1" fill-rule="evenodd"/><path fill="#76c893" d="M 342.925781 722.765625 C 342.925781 723.230469 342.882812 723.691406 342.796875 724.144531 C 342.710938 724.601562 342.582031 725.042969 342.410156 725.472656 C 342.238281 725.902344 342.03125 726.308594 341.78125 726.695312 C 341.535156 727.082031 341.253906 727.441406 340.9375 727.769531 C 340.621094 728.097656 340.28125 728.390625 339.910156 728.648438 C 339.539062 728.90625 339.144531 729.125 338.734375 729.300781 C 338.320312 729.480469 337.898438 729.613281 337.460938 729.703125 C 337.023438 729.796875 336.582031 729.839844 336.132812 729.839844 C 335.6875 729.839844 335.246094 729.796875 334.808594 729.703125 C 334.371094 729.613281 333.945312 729.480469 333.535156 729.300781 C 333.121094 729.125 332.730469 728.90625 332.359375 728.648438 C 331.988281 728.390625 331.648438 728.097656 331.332031 727.769531 C 331.015625 727.441406 330.734375 727.082031 330.488281 726.695312 C 330.238281 726.308594 330.03125 725.902344 329.859375 725.472656 C 329.6875 725.042969 329.558594 724.601562 329.472656 724.144531 C 329.386719 723.691406 329.339844 723.230469 329.339844 722.765625 C 329.339844 722.300781 329.386719 721.839844 329.472656 721.386719 C 329.558594 720.929688 329.6875 720.488281 329.859375 720.058594 C 330.03125 719.628906 330.238281 719.222656 330.488281 718.835938 C 330.734375 718.449219 331.015625 718.089844 331.332031 717.761719 C 331.648438 717.433594 331.988281 717.140625 332.359375 716.882812 C 332.730469 716.625 333.121094 716.40625 333.535156 716.230469 C 333.945312 716.050781 334.371094 715.917969 334.808594 715.828125 C 335.246094 715.738281 335.6875 715.691406 336.132812 715.691406 C 336.582031 715.691406 337.023438 715.738281 337.460938 715.828125 C 337.898438 715.917969 338.320312 716.050781 338.734375 716.230469 C 339.144531 716.40625 339.539062 716.625 339.910156 716.882812 C 340.28125 717.140625 340.621094 717.433594 340.9375 717.761719 C 341.253906 718.089844 341.535156 718.449219 341.78125 718.835938 C 342.03125 719.222656 342.238281 719.628906 342.410156 720.058594 C 342.582031 720.488281 342.710938 720.929688 342.796875 721.386719 C 342.882812 721.839844 342.925781 722.300781 342.925781 722.765625 Z M 342.925781 722.765625 " fill-opacity="0.2706" fill-rule="nonzero"/><g clip-path="url(#c06e026562)"><path fill="#ffffff" d="M 185.109375 743.433594 C 185.109375 743.433594 284.875 1068.601562 294.5625 1082.890625 C 299.71875 1090.46875 197.316406 1096.472656 197.316406 1096.472656 C 197.316406 1096.472656 20.707031 1002.617188 33.007812 849.394531 C 45.304688 696.167969 185.109375 743.433594 185.109375 743.433594 Z M 185.109375 743.433594 " fill-opacity="1" fill-rule="evenodd"/></g><path fill="#76c893" d="M 188.449219 760.699219 L 183.925781 897.539062 C 183.890625 898.597656 184.734375 899.46875 185.792969 899.503906 C 186.847656 899.542969 187.730469 898.714844 187.765625 897.65625 L 192.269531 760.828125 C 192.304688 759.773438 191.480469 758.886719 190.425781 758.851562 C 189.367188 758.8125 188.484375 759.640625 188.449219 760.699219 Z M 188.449219 760.699219 " fill-opacity="1" fill-rule="evenodd"/><path fill="#76c893" d="M 597.25 760.699219 L 601.777344 897.539062 C 601.8125 898.597656 600.964844 899.46875 599.910156 899.503906 C 598.855469 899.542969 597.96875 898.714844 597.9375 897.65625 L 593.429688 760.828125 C 593.398438 759.773438 594.222656 758.886719 595.277344 758.851562 C 596.332031 758.8125 597.214844 759.640625 597.25 760.699219 Z M 597.25 760.699219 " fill-opacity="1" fill-rule="evenodd"/><path fill="#2c3152" d="M 266.296875 486.335938 C 256.445312 562.777344 257.367188 637.320312 268.757812 709.96875 C 269.570312 715.128906 266.039062 719.972656 260.871094 720.785156 C 255.71875 721.59375 250.875 718.058594 250.0625 712.898438 C 238.398438 638.511719 237.433594 562.1875 247.523438 483.917969 C 248.1875 478.738281 263.113281 477.546875 264.585938 479.597656 C 265.941406 481.476562 266.617188 483.855469 266.296875 486.335938 Z M 266.296875 486.335938 " fill-opacity="1" fill-rule="evenodd"/><path fill="#2c3152" d="M 300.414062 855.015625 L 293.496094 728.746094 C 293.496094 728.746094 258.835938 721.34375 258.835938 721.34375 C 258.835938 721.34375 234.882812 728.765625 234.882812 728.765625 L 228.445312 854.253906 L 209.535156 853.285156 L 216.648438 714.597656 L 257.957031 701.800781 L 311.609375 713.257812 L 319.324219 853.976562 Z M 300.414062 855.015625 " fill-opacity="1" fill-rule="evenodd"/><path fill="#2c3152" d="M 520.402344 463.683594 C 520.402344 463.683594 542.277344 467.320312 542.304688 470.441406 C 542.59375 502.382812 542.296875 686.503906 531.683594 758.472656 L 530.089844 769.269531 L 508.488281 766.085938 L 510.082031 755.285156 C 521.601562 677.222656 520.421875 465.902344 520.421875 465.902344 Z M 520.402344 463.683594 " fill-opacity="1" fill-rule="evenodd"/><path fill="#76c893" d="M 520.875 738.242188 C 542.605469 738.242188 560.121094 755.601562 560.121094 776.832031 C 560.121094 798.0625 542.605469 815.425781 520.875 815.425781 C 499.148438 815.425781 481.640625 798.0625 481.640625 776.832031 C 481.640625 755.601562 499.148438 738.242188 520.875 738.242188 Z M 520.875 738.242188 " fill-opacity="1" fill-rule="evenodd"/><path fill="#2c3152" d="M 492.507812 777.988281 C 492.414062 770.058594 495.511719 762.894531 500.542969 757.648438 C 505.820312 752.140625 513.214844 748.835938 521.339844 748.789062 C 529.679688 748.824219 537.242188 752.347656 542.636719 758.023438 C 548.023438 763.6875 551.152344 771.527344 550.96875 780.054688 C 550.527344 788.558594 546.839844 796.136719 541.058594 801.398438 C 535.28125 806.652344 527.507812 809.632812 519.207031 809.074219 C 511.125 808.460938 503.996094 804.648438 499.125 798.8125 C 494.472656 793.230469 491.871094 785.878906 492.507812 777.988281 Z M 492.507812 777.988281 C 492.585938 785.632812 495.660156 792.484375 500.597656 797.472656 C 505.421875 802.335938 512.039062 805.335938 519.339844 805.304688 C 526.417969 805.332031 532.804688 802.367188 537.496094 797.664062 C 542.046875 793.117188 544.96875 786.859375 545.101562 779.847656 C 545.445312 772.84375 542.949219 766.421875 538.730469 761.570312 C 534.382812 756.570312 528.242188 753.167969 521.199219 752.703125 C 513.9375 752.140625 507.136719 754.660156 501.988281 759.160156 C 496.707031 763.761719 493.140625 770.375 492.507812 777.988281 Z M 492.507812 777.988281 " fill-opacity="1" fill-rule="evenodd"/><path fill="#2c3152" d="M 502.316406 293.417969 C 502.574219 293.328125 502.988281 293.070312 503.351562 292.984375 C 504.28125 292.640625 505.433594 292.378906 506.636719 292.035156 C 508.632812 291.601562 510.761719 291 512.410156 290.132812 C 513.75 289.441406 514.796875 288.578125 515.390625 287.457031 C 516.03125 286.332031 516.214844 284.863281 515.570312 283.050781 C 514.824219 280.976562 512.808594 278.210938 508.789062 274.667969 C 505.179688 271.472656 502.082031 270.523438 499.527344 271.042969 C 496.925781 271.472656 494.726562 273.546875 493.015625 276.65625 C 486.113281 289.183594 486.609375 320.71875 486.609375 320.71875 C 486.625 321.582031 487.335938 322.273438 488.195312 322.273438 C 489.058594 322.273438 489.742188 321.582031 489.726562 320.71875 C 489.726562 320.71875 489.527344 309.660156 490.816406 298.167969 C 491.65625 290.652344 493.113281 282.878906 495.742188 278.125 C 496.933594 275.964844 498.3125 274.410156 500.117188 274.066406 C 501.96875 273.71875 504.105469 274.667969 506.71875 277.003906 C 509.636719 279.59375 511.394531 281.582031 512.269531 283.308594 C 512.878906 284.433594 513.027344 285.296875 512.652344 285.988281 C 512.226562 286.765625 511.320312 287.28125 510.28125 287.714844 C 508.945312 288.320312 507.371094 288.667969 505.882812 289.011719 C 503.566406 289.617188 501.441406 290.222656 500.355469 291 C 499.539062 291.601562 499.121094 292.292969 499.050781 293.070312 C 498.96875 293.9375 499.371094 295.144531 500.972656 296.527344 C 501.625 297.132812 502.609375 297.046875 503.171875 296.441406 C 503.734375 295.75 503.664062 294.800781 503.015625 294.195312 C 502.738281 293.9375 502.476562 293.675781 502.316406 293.417969 Z M 502.316406 293.417969 " fill-opacity="1" fill-rule="evenodd"/><g clip-path="url(#e8a6ad7189)"><path fill="#2c3152" d="M 390.417969 108.441406 C 390.417969 108.441406 340.945312 147.976562 290.832031 93.902344 C 290.832031 93.902344 267.121094 115.113281 289.632812 151.664062 C 289.632812 151.664062 281.597656 172.875 247.070312 143.695312 C 247.070312 143.695312 222.765625 235.71875 288.191406 245.875 C 288.191406 245.875 310.335938 191.699219 332.046875 181.539062 C 353.761719 171.28125 419.621094 176.660156 419.621094 176.660156 Z M 390.417969 108.441406 " fill-opacity="1" fill-rule="evenodd"/></g></svg>